<svg width="30" height="30" viewBox="0 0 30 30" fill="none" xmlns="http://www.w3.org/2000/svg">
<path d="M15 0C6.72913 0 0 6.72848 0 15C0 23.2715 6.72913 30 15 30C23.2709 30 30 23.2715 30 15C30 6.72848 23.2709 0 15 0ZM10.4348 20.2174C10.4348 20.9378 9.85081 21.5217 9.13044 21.5217V21.5217C8.41006 21.5217 7.82609 20.9378 7.82609 20.2174V13.0435C7.82609 12.3231 8.41006 11.7391 9.13044 11.7391V11.7391C9.85081 11.7391 10.4348 12.3231 10.4348 13.0435V20.2174ZM9.13044 9.78261C8.40978 9.78261 7.82609 9.19891 7.82609 8.47826C7.82609 7.75761 8.40978 7.17391 9.13044 7.17391C9.85109 7.17391 10.4348 7.75761 10.4348 8.47826C10.4348 9.19891 9.85109 9.78261 9.13044 9.78261ZM22.8261 20.2174C22.8261 20.9378 22.2421 21.5217 21.5217 21.5217V21.5217C20.8014 21.5217 20.2174 20.9378 20.2174 20.2174V18.2609V16.6304C20.2174 15.375 19.1902 14.3478 17.9348 14.3478C16.6793 14.3478 15.6522 15.375 15.6522 16.6304V20.2174C15.6522 20.9378 15.0682 21.5217 14.3478 21.5217V21.5217C13.6275 21.5217 13.0435 20.9378 13.0435 20.2174V13.0435C13.0435 12.3231 13.6275 11.7391 14.3478 11.7391H15.2983C15.4938 11.7391 15.6522 11.8975 15.6522 12.093V12.093C15.6522 12.4048 16.0406 12.5781 16.3029 12.4095C16.9619 11.9859 17.7453 11.7391 18.587 11.7391C20.9283 11.7391 22.8261 13.637 22.8261 15.9783V20.2174Z" fill="black"/>
</svg>
